<svg width="40" height="41" viewBox="0 0 40 41" fill="none" xmlns="http://www.w3.org/2000/svg">
<mask id="mask0_609_17300" style="mask-type:alpha" maskUnits="userSpaceOnUse" x="8" y="8" width="24" height="25">
<rect x="8" y="8.14355" width="24" height="24" fill="#D9D9D9"/>
</mask>
<g mask="url(#mask0_609_17300)">
<path d="M18.875 27.4436L12.275 20.8436C12.175 20.7436 12.104 20.6353 12.062 20.5186C12.0207 20.402 12 20.277 12 20.1436C12 20.0103 12.0207 19.8853 12.062 19.7686C12.104 19.652 12.175 19.5436 12.275 19.4436L18.875 12.8436C19.0583 12.6603 19.2873 12.5643 19.562 12.5556C19.8373 12.5476 20.075 12.6436 20.275 12.8436C20.475 13.027 20.5793 13.256 20.588 13.5306C20.596 13.806 20.5 14.0436 20.3 14.2436L15.4 19.1436H26.575C26.8583 19.1436 27.096 19.2393 27.288 19.4306C27.4793 19.6226 27.575 19.8603 27.575 20.1436C27.575 20.427 27.4793 20.6643 27.288 20.8556C27.096 21.0476 26.8583 21.1436 26.575 21.1436H15.4L20.3 26.0436C20.4833 26.227 20.5793 26.4603 20.588 26.7436C20.596 27.027 20.5 27.2603 20.3 27.4436C20.1167 27.6436 19.8833 27.7436 19.6 27.7436C19.3167 27.7436 19.075 27.6436 18.875 27.4436Z" fill="black"/>
</g>
</svg>
