<svg width="38" height="38" viewBox="0 0 38 38" fill="none" xmlns="http://www.w3.org/2000/svg">
<path d="M34.5253 15.8989H33.25V15.8332H19V22.1665H27.9482C26.6427 25.8533 23.1348 28.4998 19 28.4998C13.7536 28.4998 9.49996 24.2462 9.49996 18.9998C9.49996 13.7535 13.7536 9.49984 19 9.49984C21.4217 9.49984 23.6249 10.4134 25.3024 11.9057L29.7809 7.42725C26.953 4.7918 23.1705 3.1665 19 3.1665C10.256 3.1665 3.16663 10.2559 3.16663 18.9998C3.16663 27.7438 10.256 34.8332 19 34.8332C27.7439 34.8332 34.8333 27.7438 34.8333 18.9998C34.8333 17.9382 34.724 16.9019 34.5253 15.8989Z" fill="#FFC107"/>
<path d="M4.99231 11.6302L10.1944 15.4453C11.6019 11.9603 15.0109 9.49984 19.0001 9.49984C21.4218 9.49984 23.625 10.4134 25.3025 11.9057L29.781 7.42725C26.9531 4.7918 23.1706 3.1665 19.0001 3.1665C12.9185 3.1665 7.64439 6.59996 4.99231 11.6302Z" fill="#FF3D00"/>
<path d="M19 34.8334C23.0898 34.8334 26.8059 33.2683 29.6155 30.7231L24.7151 26.5763C23.1254 27.7804 21.1494 28.5001 19 28.5001C14.8818 28.5001 11.385 25.8741 10.0677 22.2095L4.90442 26.1876C7.52484 31.3152 12.8464 34.8334 19 34.8334Z" fill="#4CAF50"/>
<path d="M34.5254 15.8992H33.25V15.8335H19V22.1668H27.9482C27.3212 23.9378 26.182 25.4649 24.7127 26.5772L24.715 26.5756L29.6155 30.7224C29.2687 31.0375 34.8333 26.9168 34.8333 19.0002C34.8333 17.9385 34.7241 16.9022 34.5254 15.8992Z" fill="#1976D2"/>
</svg>
