<svg width="187" height="184" viewBox="0 0 187 184" fill="none" xmlns="http://www.w3.org/2000/svg">
<g clip-path="url(#clip0_169_124)">
<path d="M173.171 0H87.3045C79.5377 0 73.353 6.08615 73.353 13.5877V83.5077H173.027C180.65 83.5077 186.834 77.4215 186.834 69.92V13.5877C186.978 6.08615 180.794 0 173.171 0Z" fill="#92C83E"/>
<path d="M103.701 48.4062C107.434 48.4062 110.461 45.4278 110.461 41.7539C110.461 38.0799 107.434 35.1016 103.701 35.1016C99.9675 35.1016 96.9409 38.0799 96.9409 41.7539C96.9409 45.4278 99.9675 48.4062 103.701 48.4062Z" fill="white"/>
<path d="M130.165 48.4062C133.899 48.4062 136.925 45.4278 136.925 41.7539C136.925 38.0799 133.899 35.1016 130.165 35.1016C126.432 35.1016 123.405 38.0799 123.405 41.7539C123.405 45.4278 126.432 48.4062 130.165 48.4062Z" fill="white"/>
<path d="M156.63 48.4062C160.364 48.4062 163.39 45.4278 163.39 41.7539C163.39 38.0799 160.364 35.1016 156.63 35.1016C152.897 35.1016 149.87 38.0799 149.87 41.7539C149.87 45.4278 152.897 48.4062 156.63 48.4062Z" fill="white"/>
<path d="M14.2392 99.643C6.6163 99.643 0.431641 105.729 0.431641 113.231V170.271C0.431641 177.772 6.6163 183.858 14.2392 183.858H100.105C107.728 183.858 113.913 177.772 113.913 170.271V99.5015H14.2392V99.643Z" fill="#FBB03B"/>
<path d="M30.6355 148.474C34.3689 148.474 37.3954 145.495 37.3954 141.821C37.3954 138.148 34.3689 135.169 30.6355 135.169C26.902 135.169 23.8755 138.148 23.8755 141.821C23.8755 145.495 26.902 148.474 30.6355 148.474Z" fill="white"/>
<path d="M57.1003 148.474C60.8337 148.474 63.8603 145.495 63.8603 141.821C63.8603 138.148 60.8337 135.169 57.1003 135.169C53.3669 135.169 50.3403 138.148 50.3403 141.821C50.3403 145.495 53.3669 148.474 57.1003 148.474Z" fill="white"/>
<path d="M83.5647 148.474C87.2981 148.474 90.3246 145.495 90.3246 141.821C90.3246 138.148 87.2981 135.169 83.5647 135.169C79.8312 135.169 76.8047 138.148 76.8047 141.821C76.8047 145.495 79.8312 148.474 83.5647 148.474Z" fill="white"/>
<path d="M57.1002 55.4831V83.6492H28.622C12.8008 83.6492 0 71.0523 0 55.4831C0 39.9138 12.8008 27.3169 28.622 27.3169C44.4432 27.3169 57.1002 40.0554 57.1002 55.4831Z" fill="#ED1E79"/>
<path d="M129.878 127.809V99.6431H158.5C174.321 99.6431 187.122 112.24 187.122 127.809C187.122 143.378 174.321 155.975 158.5 155.975C142.679 155.975 129.878 143.237 129.878 127.809Z" fill="#3FA9F5"/>
</g>
<defs>
<clipPath id="clip0_169_124">
<rect width="186.978" height="184" fill="white"/>
</clipPath>
</defs>
</svg>
