<svg width="23" height="20" viewBox="0 0 23 20" fill="none" xmlns="http://www.w3.org/2000/svg">
<path d="M2.55005 19.0651C2.13338 19.2317 1.73755 19.1951 1.36255 18.9551C0.987549 18.7159 0.800049 18.3672 0.800049 17.9088V13.2526C0.800049 12.9609 0.883382 12.7005 1.05005 12.4713C1.21672 12.2422 1.44588 12.0963 1.73755 12.0338L10.8 9.78382L1.73755 7.53382C1.44588 7.47132 1.21672 7.32549 1.05005 7.09632C0.883382 6.86716 0.800049 6.60674 0.800049 6.31507V1.65882C0.800049 1.20049 0.987549 0.851322 1.36255 0.611322C1.73755 0.372155 2.13338 0.335905 2.55005 0.502572L21.8 8.62757C22.3209 8.85674 22.5813 9.24216 22.5813 9.78382C22.5813 10.3255 22.3209 10.7109 21.8 10.9401L2.55005 19.0651Z" fill="white"/>
</svg>
