<svg width="24" height="24" viewBox="0 0 24 24" fill="none" xmlns="http://www.w3.org/2000/svg">
<path d="M3.55413 18.6491C5.15147 17.0517 5.31121 16.6524 6.30954 17.6507C7.30788 18.6491 6.90854 18.7689 5.31121 20.4061C4.1132 21.6041 2.59573 21.3645 2.59573 21.3645C2.59573 21.3645 2.35613 19.8471 3.55413 18.6491Z" fill="#FF9D27"/>
<path d="M6.58902 20.2867C7.22796 18.6095 7.42762 18.4099 6.50915 17.8907C5.59069 17.3716 5.59069 17.731 4.99168 19.4082C4.51248 20.6461 5.07155 21.7643 5.07155 21.7643C5.07155 21.7643 6.14975 21.5646 6.58902 20.2867Z" fill="#FF9D27"/>
<path d="M5.67052 18.729C6.02993 17.8105 6.02993 17.6108 6.50913 17.8904C7.02826 18.1699 6.90846 18.2897 6.54906 19.2082C6.30946 19.887 5.71046 20.0468 5.71046 20.0468C5.71046 20.0468 5.43092 19.4478 5.67052 18.729Z" fill="#FDF516"/>
<path d="M6.02979 17.451C5.51066 16.5325 5.31099 16.7322 3.63379 17.3711C2.39585 17.8503 2.15625 18.8886 2.15625 18.8886C2.15625 18.8886 3.27439 19.4477 4.51232 18.9685C6.18953 18.3295 6.54893 18.3295 6.02979 17.451Z" fill="#FF9D27"/>
<path d="M5.19134 18.2893C6.10981 17.9299 6.30948 17.9299 6.02994 17.4507C5.75041 16.9315 5.63061 17.0513 4.71214 17.4107C4.03327 17.6503 3.87354 18.2493 3.87354 18.2493C3.87354 18.2493 4.51247 18.5289 5.19134 18.2893Z" fill="#FDF516"/>
<path d="M4.75196 18.2094C5.6305 17.3309 5.71036 17.0913 6.26943 17.6504C6.8285 18.2094 6.5889 18.2893 5.71036 19.1678C5.03149 19.8467 4.19289 19.687 4.19289 19.687C4.19289 19.687 4.11302 18.8883 4.75196 18.2094Z" fill="#FDF516"/>
<path d="M6.58902 14.3764C4.11314 10.2233 0 11.9405 0 11.9405C0 11.9405 5.87022 6.07027 9.82363 10.0237L6.58902 14.3764Z" fill="#3BAACF"/>
<path d="M8.50582 11.3016L9.78369 10.0237C5.87022 6.07027 0 11.9405 0 11.9405C0 11.9405 5.15141 8.26661 8.50582 11.3016Z" fill="#428BC1"/>
<path d="M9.58398 17.3713C13.7371 19.8472 12.0199 23.9603 12.0199 23.9603C12.0199 23.9603 17.8901 18.0901 13.9367 14.1367L9.58398 17.3713Z" fill="#3BAACF"/>
<path d="M12.6587 15.4546L13.9366 14.1768C17.89 18.1302 12.0198 24.0004 12.0198 24.0004C12.0198 24.0004 15.6937 18.809 12.6587 15.4546Z" fill="#428BC1"/>
<path d="M18.6889 11.5406C14.0167 16.1729 8.86531 18.6887 7.0683 16.8917C5.2713 15.0947 7.7871 9.94326 12.4194 5.27105C17.8503 -0.159901 23.8803 0.0797002 23.8803 0.0797002C23.8803 0.0797002 24.08 6.10965 18.6889 11.5406Z" fill="#C5D0D8"/>
<path d="M17.4909 10.223C12.8587 14.8552 8.22639 17.8902 7.14819 16.812C6.06998 15.7338 9.10493 11.1015 13.7372 6.46922C19.1682 1.03827 23.9602 0 23.9602 0C23.9602 0 22.9219 4.79201 17.4909 10.223Z" fill="#DAE3EA"/>
<path d="M8.90518 18.1694C8.70552 18.3691 8.38605 18.3691 8.18638 18.1694L5.79038 15.7734C5.59071 15.5738 5.59071 15.2144 5.79038 15.0147L6.50918 14.2959L9.62399 17.4107L8.90518 18.1694Z" fill="#C94747"/>
<path d="M8.22627 17.4505C8.0266 17.6502 7.787 17.73 7.6672 17.6102L6.30946 16.2525C6.18966 16.1327 6.26953 15.8931 6.4692 15.6934L7.188 14.9746L8.94507 16.7317L8.22627 17.4505Z" fill="#F15744"/>
<path d="M7.54756 18.4494C7.42776 18.5692 7.14822 18.5692 7.02842 18.4494L5.47102 16.892C5.35122 16.7722 5.39115 16.5326 5.51095 16.4128L5.99015 15.9336L8.02676 17.9702L7.54756 18.4494Z" fill="#3E4347"/>
<path d="M7.22781 18.1298C7.10801 18.2496 6.86841 18.2895 6.78855 18.2097L5.71034 17.1315C5.63048 17.0516 5.67041 16.8519 5.83014 16.7321L6.30935 16.2529L7.70702 17.6506L7.22781 18.1298Z" fill="#62727A"/>
<path d="M23.8801 0.0793729C23.8801 0.0793729 21.7237 -0.000493914 18.8086 1.11764L22.8419 5.15092C23.96 2.23578 23.8801 0.0793729 23.8801 0.0793729Z" fill="#C94747"/>
<path d="M23.8802 0.0800781C23.8802 0.0800781 22.1631 0.439479 19.5674 1.91702L22.0433 4.39289C23.5208 1.79722 23.8802 0.0800781 23.8802 0.0800781Z" fill="#F15744"/>
<path d="M16.5724 9.38397C17.6751 9.38397 18.569 8.49003 18.569 7.3873C18.569 6.28457 17.6751 5.39062 16.5724 5.39062C15.4696 5.39062 14.5757 6.28457 14.5757 7.3873C14.5757 8.49003 15.4696 9.38397 16.5724 9.38397Z" fill="#EDF4F9"/>
<path d="M16.5722 8.70592C17.3 8.70592 17.89 8.11592 17.89 7.38812C17.89 6.66031 17.3 6.07031 16.5722 6.07031C15.8444 6.07031 15.2544 6.66031 15.2544 7.38812C15.2544 8.11592 15.8444 8.70592 16.5722 8.70592Z" fill="#3BAACF"/>
<path d="M12.5789 13.3781C13.6817 13.3781 14.5756 12.4842 14.5756 11.3814C14.5756 10.2787 13.6817 9.38477 12.5789 9.38477C11.4762 9.38477 10.5823 10.2787 10.5823 11.3814C10.5823 12.4842 11.4762 13.3781 12.5789 13.3781Z" fill="#EDF4F9"/>
<path d="M12.579 12.6991C13.3068 12.6991 13.8968 12.1091 13.8968 11.3813C13.8968 10.6535 13.3068 10.0635 12.579 10.0635C11.8512 10.0635 11.2612 10.6535 11.2612 11.3813C11.2612 12.1091 11.8512 12.6991 12.579 12.6991Z" fill="#3BAACF"/>
<path d="M18.7287 1.95675C18.6089 2.07655 18.3693 2.07655 18.2495 1.95675C18.1297 1.83695 18.1297 1.59735 18.2495 1.47755C18.3693 1.35775 18.6089 1.35775 18.7287 1.47755C18.8485 1.59735 18.8485 1.83695 18.7287 1.95675Z" fill="white"/>
<path d="M19.4076 2.95534C19.584 2.95534 19.7271 2.81231 19.7271 2.63587C19.7271 2.45944 19.584 2.31641 19.4076 2.31641C19.2312 2.31641 19.0881 2.45944 19.0881 2.63587C19.0881 2.81231 19.2312 2.95534 19.4076 2.95534Z" fill="white"/>
<path d="M20.3661 3.91335C20.5425 3.91335 20.6856 3.77032 20.6856 3.59388C20.6856 3.41744 20.5425 3.27441 20.3661 3.27441C20.1897 3.27441 20.0466 3.41744 20.0466 3.59388C20.0466 3.77032 20.1897 3.91335 20.3661 3.91335Z" fill="white"/>
<path d="M21.2846 4.87233C21.461 4.87233 21.604 4.7293 21.604 4.55287C21.604 4.37643 21.461 4.2334 21.2846 4.2334C21.1081 4.2334 20.9651 4.37643 20.9651 4.55287C20.9651 4.7293 21.1081 4.87233 21.2846 4.87233Z" fill="white"/>
<path d="M22.2428 5.7903C22.4192 5.7903 22.5623 5.64727 22.5623 5.47083C22.5623 5.2944 22.4192 5.15137 22.2428 5.15137C22.0664 5.15137 21.9233 5.2944 21.9233 5.47083C21.9233 5.64727 22.0664 5.7903 22.2428 5.7903Z" fill="white"/>
</svg>
