<svg width="40" height="40" viewBox="0 0 40 40" fill="none" xmlns="http://www.w3.org/2000/svg">
<mask id="mask0_516_6296" style="mask-type:alpha" maskUnits="userSpaceOnUse" x="5" y="5" width="30" height="30">
<rect x="5" y="5" width="30" height="30" fill="#D9D9D9"/>
</mask>
<g mask="url(#mask0_516_6296)">
<path d="M10.5 29.2814C10.0833 29.448 9.6875 29.4114 9.3125 29.1714C8.9375 28.9322 8.75 28.5835 8.75 28.1251V23.4689C8.75 23.1772 8.83333 22.9168 9 22.6876C9.16667 22.4585 9.39583 22.3126 9.6875 22.2501L18.75 20.0001L9.6875 17.7501C9.39583 17.6876 9.16667 17.5418 9 17.3126C8.83333 17.0835 8.75 16.823 8.75 16.5314V11.8751C8.75 11.4168 8.9375 11.0676 9.3125 10.8276C9.6875 10.5885 10.0833 10.5522 10.5 10.7189L29.75 18.8439C30.2708 19.073 30.5312 19.4585 30.5312 20.0001C30.5312 20.5418 30.2708 20.9272 29.75 21.1564L10.5 29.2814Z" fill="#444DF2"/>
</g>
</svg>
