<svg width="34" height="34" viewBox="0 0 34 34" fill="none" xmlns="http://www.w3.org/2000/svg">
<rect width="34" height="34" rx="17" fill="#ECEEFE"/>
<mask id="mask0_849_14461" style="mask-type:alpha" maskUnits="userSpaceOnUse" x="8" y="8" width="18" height="18">
<rect x="8" y="8" width="18" height="18" fill="#D9D9D9"/>
</mask>
<g mask="url(#mask0_849_14461)">
<path d="M22.25 18.5C22.0375 18.5 21.8595 18.428 21.716 18.284C21.572 18.1405 21.5 17.9625 21.5 17.75V16.25H20C19.7875 16.25 19.6095 16.178 19.466 16.034C19.322 15.8905 19.25 15.7125 19.25 15.5C19.25 15.2875 19.322 15.1092 19.466 14.9652C19.6095 14.8217 19.7875 14.75 20 14.75H21.5V13.25C21.5 13.0375 21.572 12.8593 21.716 12.7153C21.8595 12.5718 22.0375 12.5 22.25 12.5C22.4625 12.5 22.6405 12.5718 22.784 12.7153C22.928 12.8593 23 13.0375 23 13.25V14.75H24.5C24.7125 14.75 24.8905 14.8217 25.034 14.9652C25.178 15.1092 25.25 15.2875 25.25 15.5C25.25 15.7125 25.178 15.8905 25.034 16.034C24.8905 16.178 24.7125 16.25 24.5 16.25H23V17.75C23 17.9625 22.928 18.1405 22.784 18.284C22.6405 18.428 22.4625 18.5 22.25 18.5ZM14.75 17C13.925 17 13.2188 16.7062 12.6313 16.1187C12.0438 15.5312 11.75 14.825 11.75 14C11.75 13.175 12.0438 12.4688 12.6313 11.8813C13.2188 11.2938 13.925 11 14.75 11C15.575 11 16.2812 11.2938 16.8687 11.8813C17.4563 12.4688 17.75 13.175 17.75 14C17.75 14.825 17.4563 15.5312 16.8687 16.1187C16.2812 16.7062 15.575 17 14.75 17ZM9.5 23C9.2875 23 9.1095 22.928 8.966 22.784C8.822 22.6405 8.75 22.4625 8.75 22.25V20.9C8.75 20.475 8.8595 20.0843 9.0785 19.7277C9.297 19.3717 9.5875 19.1 9.95 18.9125C10.725 18.525 11.5125 18.2343 12.3125 18.0402C13.1125 17.8468 13.925 17.75 14.75 17.75C15.575 17.75 16.3875 17.8468 17.1875 18.0402C17.9875 18.2343 18.775 18.525 19.55 18.9125C19.9125 19.1 20.203 19.3717 20.4215 19.7277C20.6405 20.0843 20.75 20.475 20.75 20.9V22.25C20.75 22.4625 20.678 22.6405 20.534 22.784C20.3905 22.928 20.2125 23 20 23H9.5ZM10.25 21.5H19.25V20.9C19.25 20.7625 19.2157 20.6375 19.1473 20.525C19.0782 20.4125 18.9875 20.325 18.875 20.2625C18.2 19.925 17.5188 19.6718 16.8312 19.5028C16.1437 19.3342 15.45 19.25 14.75 19.25C14.05 19.25 13.3562 19.3342 12.6687 19.5028C11.9812 19.6718 11.3 19.925 10.625 20.2625C10.5125 20.325 10.422 20.4125 10.3535 20.525C10.2845 20.6375 10.25 20.7625 10.25 20.9V21.5ZM14.75 15.5C15.1625 15.5 15.5157 15.353 15.8098 15.059C16.1033 14.7655 16.25 14.4125 16.25 14C16.25 13.5875 16.1033 13.2345 15.8098 12.941C15.5157 12.647 15.1625 12.5 14.75 12.5C14.3375 12.5 13.9845 12.647 13.691 12.941C13.397 13.2345 13.25 13.5875 13.25 14C13.25 14.4125 13.397 14.7655 13.691 15.059C13.9845 15.353 14.3375 15.5 14.75 15.5Z" fill="black"/>
</g>
</svg>
