<svg width="40" height="40" viewBox="0 0 40 40" fill="none" xmlns="http://www.w3.org/2000/svg">
<rect width="40" height="40" rx="20" fill="#ECEEFE"/>
<mask id="mask0_516_6376" style="mask-type:alpha" maskUnits="userSpaceOnUse" x="8" y="8" width="24" height="24">
<rect x="8" y="8" width="24" height="24" fill="#D9D9D9"/>
</mask>
<g mask="url(#mask0_516_6376)">
<path d="M20.0002 30.8002C18.5335 30.8002 17.1419 30.5129 15.8252 29.9382C14.5085 29.3629 13.3629 28.5875 12.3882 27.6122C11.4129 26.6375 10.6375 25.4919 10.0622 24.1752C9.48753 22.8585 9.2002 21.4669 9.2002 20.0002C9.2002 18.5169 9.48753 17.1209 10.0622 15.8122C10.6375 14.5042 11.4129 13.3625 12.3882 12.3872C13.3629 11.4125 14.5085 10.6375 15.8252 10.0622C17.1419 9.48753 18.5335 9.2002 20.0002 9.2002C21.4835 9.2002 22.8795 9.48753 24.1882 10.0622C25.4962 10.6375 26.6379 11.4125 27.6132 12.3872C28.5879 13.3625 29.3629 14.5042 29.9382 15.8122C30.5129 17.1209 30.8002 18.5169 30.8002 20.0002V21.8252C30.8002 23.0085 30.4129 23.9502 29.6382 24.6502C28.8629 25.3502 27.9585 25.7002 26.9252 25.7002C26.3419 25.7002 25.7752 25.5875 25.2252 25.3622C24.6752 25.1375 24.2002 24.8335 23.8002 24.4502C23.3002 24.8502 22.7045 25.1585 22.0132 25.3752C21.3212 25.5919 20.6502 25.7002 20.0002 25.7002C18.4169 25.7002 17.0712 25.1462 15.9632 24.0382C14.8545 22.9295 14.3002 21.5835 14.3002 20.0002C14.3002 18.4169 14.8545 17.0712 15.9632 15.9632C17.0712 14.8545 18.4169 14.3002 20.0002 14.3002C21.5835 14.3002 22.9295 14.8545 24.0382 15.9632C25.1462 17.0712 25.7002 18.4169 25.7002 20.0002V21.8252C25.7002 22.1585 25.8209 22.4462 26.0622 22.6882C26.3042 22.9295 26.5919 23.0502 26.9252 23.0502C27.2585 23.0502 27.5462 22.9295 27.7882 22.6882C28.0295 22.4462 28.1502 22.1585 28.1502 21.8252V20.0002C28.1502 17.7669 27.3502 15.8502 25.7502 14.2502C24.1502 12.6502 22.2335 11.8502 20.0002 11.8502C17.7669 11.8502 15.8502 12.6502 14.2502 14.2502C12.6502 15.8502 11.8502 17.7669 11.8502 20.0002C11.8502 22.2335 12.6502 24.1502 14.2502 25.7502C15.8502 27.3502 17.7669 28.1502 20.0002 28.1502H23.7752C24.1419 28.1502 24.4542 28.2795 24.7122 28.5382C24.9709 28.7962 25.1002 29.1085 25.1002 29.4752C25.1002 29.8419 24.9709 30.1545 24.7122 30.4132C24.4542 30.6712 24.1419 30.8002 23.7752 30.8002H20.0002ZM20.0002 23.0502C20.8502 23.0502 21.5712 22.7542 22.1632 22.1622C22.7545 21.5709 23.0502 20.8502 23.0502 20.0002C23.0502 19.1502 22.7545 18.4292 22.1632 17.8372C21.5712 17.2459 20.8502 16.9502 20.0002 16.9502C19.1502 16.9502 18.4295 17.2459 17.8382 17.8372C17.2462 18.4292 16.9502 19.1502 16.9502 20.0002C16.9502 20.8502 17.2462 21.5709 17.8382 22.1622C18.4295 22.7542 19.1502 23.0502 20.0002 23.0502Z" fill="#535AF1"/>
</g>
</svg>
