<svg width="23" height="24" viewBox="0 0 23 24" fill="none" xmlns="http://www.w3.org/2000/svg">
<path d="M16.1562 17.3438C15.9271 17.0729 15.8125 16.7654 15.8125 16.4212C15.8125 16.0779 15.9271 15.7917 16.1562 15.5625L18.4687 13.25H9.5C9.14583 13.25 8.84917 13.13 8.61 12.89C8.37 12.6508 8.25 12.3542 8.25 12C8.25 11.6458 8.37 11.3487 8.61 11.1087C8.84917 10.8696 9.14583 10.75 9.5 10.75H18.4687L16.1562 8.4375C15.9062 8.1875 15.7812 7.89083 15.7812 7.5475C15.7812 7.20333 15.9062 6.90625 16.1562 6.65625C16.3854 6.40625 16.6721 6.28125 17.0162 6.28125C17.3596 6.28125 17.6458 6.39583 17.875 6.625L22.375 11.125C22.5 11.25 22.5887 11.3854 22.6412 11.5312C22.6929 11.6771 22.7187 11.8333 22.7187 12C22.7187 12.1667 22.6929 12.3229 22.6412 12.4688C22.5887 12.6146 22.5 12.75 22.375 12.875L17.875 17.375C17.6042 17.6458 17.3075 17.7654 16.985 17.7337C16.6617 17.7029 16.3854 17.5729 16.1562 17.3438ZM3.25 23.25C2.5625 23.25 1.97375 23.0054 1.48375 22.5163C0.994583 22.0263 0.75 21.4375 0.75 20.75V3.25C0.75 2.5625 0.994583 1.97375 1.48375 1.48375C1.97375 0.994583 2.5625 0.75 3.25 0.75H10.75C11.1042 0.75 11.4012 0.869583 11.6412 1.10875C11.8804 1.34875 12 1.64583 12 2C12 2.35417 11.8804 2.65083 11.6412 2.89C11.4012 3.13 11.1042 3.25 10.75 3.25H3.25V20.75H10.75C11.1042 20.75 11.4012 20.87 11.6412 21.11C11.8804 21.3492 12 21.6458 12 22C12 22.3542 11.8804 22.6508 11.6412 22.89C11.4012 23.13 11.1042 23.25 10.75 23.25H3.25Z" fill="black"/>
</svg>
