<svg width="40" height="40" viewBox="0 0 40 40" fill="none" xmlns="http://www.w3.org/2000/svg">
<rect width="40" height="40" rx="20" fill="#ECEEFE"/>
<mask id="mask0_516_6353" style="mask-type:alpha" maskUnits="userSpaceOnUse" x="8" y="8" width="24" height="24">
<rect x="8" y="8" width="24" height="24" fill="#D9D9D9"/>
</mask>
<g mask="url(#mask0_516_6353)">
<path d="M23.7002 19.2002C24.2002 19.2002 24.6169 19.0335 24.9502 18.7002C25.2835 18.3669 25.4502 17.9502 25.4502 17.4502C25.4502 16.9502 25.2835 16.5335 24.9502 16.2002C24.6169 15.8669 24.2002 15.7002 23.7002 15.7002C23.2002 15.7002 22.7835 15.8669 22.4502 16.2002C22.1169 16.5335 21.9502 16.9502 21.9502 17.4502C21.9502 17.9502 22.1169 18.3669 22.4502 18.7002C22.7835 19.0335 23.2002 19.2002 23.7002 19.2002ZM16.3002 19.2002C16.8002 19.2002 17.2169 19.0335 17.5502 18.7002C17.8835 18.3669 18.0502 17.9502 18.0502 17.4502C18.0502 16.9502 17.8835 16.5335 17.5502 16.2002C17.2169 15.8669 16.8002 15.7002 16.3002 15.7002C15.8002 15.7002 15.3835 15.8669 15.0502 16.2002C14.7169 16.5335 14.5502 16.9502 14.5502 17.4502C14.5502 17.9502 14.7169 18.3669 15.0502 18.7002C15.3835 19.0335 15.8002 19.2002 16.3002 19.2002ZM20.0002 26.0002C21.1002 26.0002 22.0712 25.7542 22.9132 25.2622C23.7545 24.7709 24.4002 24.1835 24.8502 23.5002C25.0835 23.1335 25.1045 22.8002 24.9132 22.5002C24.7212 22.2002 24.4585 22.0502 24.1252 22.0502C23.8752 22.0502 23.6795 22.1002 23.5382 22.2002C23.3962 22.3002 23.2585 22.4335 23.1252 22.6002C22.7585 23.0502 22.3085 23.4129 21.7752 23.6882C21.2419 23.9629 20.6502 24.1002 20.0002 24.1002C19.3502 24.1002 18.7585 23.9629 18.2252 23.6882C17.6919 23.4129 17.2419 23.0502 16.8752 22.6002C16.7419 22.4335 16.6045 22.3002 16.4632 22.2002C16.3212 22.1002 16.1252 22.0502 15.8752 22.0502C15.5252 22.0502 15.2629 22.2125 15.0882 22.5372C14.9129 22.8625 14.9585 23.2252 15.2252 23.6252C15.6419 24.2419 16.2669 24.7919 17.1002 25.2752C17.9335 25.7585 18.9002 26.0002 20.0002 26.0002ZM20.0002 30.8002C18.5002 30.8002 17.0959 30.5169 15.7872 29.9502C14.4792 29.3835 13.3379 28.6129 12.3632 27.6382C11.3879 26.6629 10.6169 25.5209 10.0502 24.2122C9.48353 22.9042 9.2002 21.5002 9.2002 20.0002C9.2002 18.5002 9.48353 17.0919 10.0502 15.7752C10.6169 14.4585 11.3879 13.3129 12.3632 12.3382C13.3379 11.3629 14.4792 10.5959 15.7872 10.0372C17.0959 9.4792 18.5002 9.2002 20.0002 9.2002C21.5002 9.2002 22.9085 9.4792 24.2252 10.0372C25.5419 10.5959 26.6879 11.3629 27.6632 12.3382C28.6379 13.3129 29.4042 14.4585 29.9622 15.7752C30.5209 17.0919 30.8002 18.5002 30.8002 20.0002C30.8002 21.5002 30.5209 22.9042 29.9622 24.2122C29.4042 25.5209 28.6379 26.6629 27.6632 27.6382C26.6879 28.6129 25.5419 29.3835 24.2252 29.9502C22.9085 30.5169 21.5002 30.8002 20.0002 30.8002ZM20.0002 28.1502C22.2669 28.1502 24.1919 27.3585 25.7752 25.7752C27.3585 24.1919 28.1502 22.2669 28.1502 20.0002C28.1502 17.7335 27.3585 15.8085 25.7752 14.2252C24.1919 12.6419 22.2669 11.8502 20.0002 11.8502C17.7335 11.8502 15.8085 12.6419 14.2252 14.2252C12.6419 15.8085 11.8502 17.7335 11.8502 20.0002C11.8502 22.2669 12.6419 24.1919 14.2252 25.7752C15.8085 27.3585 17.7335 28.1502 20.0002 28.1502Z" fill="#535AF1"/>
</g>
</svg>
