<svg width="40" height="40" viewBox="0 0 40 40" fill="none" xmlns="http://www.w3.org/2000/svg">
<path d="M18.3378 10L20.0044 13.3333L21.6711 10H18.3378ZM24.3044 10.3333L24.0711 14.0667L27.1711 12L24.3044 10.3333ZM12.8378 12L15.9711 14.0667L15.7378 10.3333L12.8378 12Z" fill="#4AA9FF"/>
<path d="M16.1377 30H12.2043V25.7L16.8043 26.7666C15.7043 27.9333 16.1377 30 16.1377 30Z" fill="#EBA352"/>
<path d="M15.7709 30H11.3709C11.3709 30 11.4376 27.8667 10.7042 26.0333L16.2042 26.8333C15.5709 28.4667 15.7709 30 15.7709 30ZM15.3376 24.1333H17.0042V16.7333C17.0042 16.2333 16.6376 15.8333 16.1709 15.8333C15.7042 15.8333 15.3376 16.2333 15.3376 16.7667V24.1333ZM13.3709 24.1333H15.3376V16.1C15.3376 15.5 14.9042 15 14.3376 15C13.8042 15 13.3376 15.5 13.3376 16.1V24.1333H13.3709Z" fill="#FFDD67"/>
<path d="M11.6709 24.1333H13.4042V16.5666C13.4042 16.0333 13.0042 15.6 12.5376 15.6C12.0709 15.6 11.6709 16.0333 11.6709 16.5666V24.1333ZM10.8709 16.7333C10.4376 16.7333 10.1042 17.1333 10.1042 17.6333V24.1333H11.6709V17.6333C11.6709 17.1333 11.3042 16.7333 10.8709 16.7333Z" fill="#FFDD67"/>
<path d="M16.171 15.8H16.0043C16.4043 15.8667 16.7043 16.2667 16.7043 16.7V24.1333H17.0043V16.7333C17.0043 16.2333 16.6377 15.8 16.171 15.8ZM14.371 15C14.3043 15 14.271 15 14.2377 15.0333C14.7043 15.1 15.071 15.5667 15.071 16.1V21.4667L15.371 21.8V16.1C15.3377 15.5 14.9043 15 14.371 15ZM12.5377 15.6H12.4043C12.8043 15.6667 13.1043 16.0667 13.1043 16.5333V21.4333L13.4043 21.7667V16.5667C13.371 16.0333 13.0043 15.6 12.5377 15.6ZM10.871 16.7333C10.8043 16.7333 10.771 16.7333 10.7377 16.7667C11.1043 16.8333 11.371 17.2 11.371 17.6333V21.4667L11.671 21.8V17.6333C11.671 17.1333 11.3043 16.7333 10.871 16.7333Z" fill="#EBA352"/>
<path d="M19.8043 20.7334C19.3043 20.1667 18.3043 20.4334 17.6043 21.9C17.1043 22.9 16.971 22.7 16.7043 22.7667V21.8667C16.7043 21.8667 10.071 21.4334 10.071 22.4334C10.071 22.4334 9.771 24.9 10.4043 26.4334C11.371 28.7334 16.3043 29.3334 17.8377 25.4334C18.1377 24.6667 18.571 23.8334 18.9043 23C19.3377 22 20.371 21.4 19.8043 20.7334Z" fill="#FFDD67"/>
<path d="M19.4711 20.5C20.5378 21.3 18.5711 22.8333 17.6378 25.2C16.3045 28.6 12.4045 28.6 10.7711 27.0333C12.2711 28.8 16.4378 29.1333 17.8378 25.4333C18.7711 23.0333 21.0378 21.2 19.4711 20.5Z" fill="#EBA352"/>
<path d="M17.0044 22.7333C15.7044 22.2666 12.9711 23.1666 13.3377 25.7666C13.3377 23.3333 15.5044 22.7666 16.7044 22.7666C16.8711 22.7666 17.0044 22.7333 17.0044 22.7333ZM23.8711 30H27.8044V25.7L23.2044 26.7666C24.3044 27.9333 23.8711 30 23.8711 30Z" fill="#EBA352"/>
<path d="M24.2377 30H28.6377C28.6377 30 28.5711 27.8667 29.3044 26.0333L23.8044 26.8333C24.4377 28.4667 24.2377 30 24.2377 30ZM24.6711 24.1333H23.0044V16.7333C23.0044 16.2333 23.3711 15.8333 23.8377 15.8333C24.3044 15.8333 24.6711 16.2333 24.6711 16.7667V24.1333ZM26.6377 24.1333H24.6711V16.1C24.6711 15.5 25.1044 15 25.6711 15C26.2044 15 26.6711 15.5 26.6711 16.1V24.1333H26.6377Z" fill="#FFDD67"/>
<path d="M28.3376 24.1333H26.6042V16.5666C26.6042 16.0333 27.0042 15.6 27.4709 15.6C27.9376 15.6 28.3376 16.0333 28.3376 16.5666V24.1333ZM29.1376 16.7333C29.5709 16.7333 29.9042 17.1333 29.9042 17.6333V24.1333H28.3376V17.6333C28.3376 17.1333 28.7042 16.7333 29.1376 16.7333Z" fill="#FFDD67"/>
<path d="M23.8377 15.8H24.0044C23.6044 15.8667 23.3044 16.2667 23.3044 16.7V24.1333H23.0044V16.7333C23.0044 16.2333 23.3711 15.8 23.8377 15.8ZM25.6377 15C25.7044 15 25.7377 15 25.7711 15.0333C25.3044 15.1 24.9377 15.5667 24.9377 16.1V21.4667L24.6377 21.8V16.1C24.6711 15.5 25.1044 15 25.6377 15ZM27.4711 15.6H27.6044C27.2044 15.6667 26.9044 16.0667 26.9044 16.5333V21.4333L26.6044 21.7667V16.5667C26.6377 16.0333 27.0044 15.6 27.4711 15.6ZM29.1377 16.7333C29.2044 16.7333 29.2377 16.7333 29.2711 16.7667C28.9044 16.8333 28.6377 17.2 28.6377 17.6333V21.4667L28.3377 21.8V17.6333C28.3377 17.1333 28.7044 16.7333 29.1377 16.7333Z" fill="#EBA352"/>
<path d="M20.2044 20.7334C20.7044 20.1667 21.7044 20.4334 22.4044 21.9C22.9044 22.9 23.0378 22.7 23.3044 22.7667V21.8667C23.3044 21.8667 29.9378 21.4334 29.9378 22.4334C29.9378 22.4334 30.2378 24.9 29.6044 26.4334C28.6378 28.7334 23.7044 29.3334 22.1711 25.4334C21.8711 24.6667 21.4378 23.8334 21.1044 23C20.6711 22 19.6378 21.4 20.2044 20.7334Z" fill="#FFDD67"/>
<path d="M20.5378 20.5C19.4711 21.3 21.4378 22.8333 22.3711 25.2C23.7045 28.6 27.6045 28.6 29.2378 27.0333C27.7378 28.8 23.5711 29.1333 22.1711 25.4333C21.2378 23.0333 18.9711 21.2 20.5378 20.5Z" fill="#EBA352"/>
<path d="M23.0045 22.7333C24.3045 22.2666 27.0378 23.1666 26.6712 25.7666C26.6712 23.3333 24.5045 22.7666 23.3045 22.7666C23.1379 22.7666 23.0045 22.7333 23.0045 22.7333Z" fill="#EBA352"/>
</svg>
