<svg width="184" height="184" viewBox="0 0 184 184" fill="none" xmlns="http://www.w3.org/2000/svg">
<rect x="4" y="4" width="176" height="176" rx="88" fill="#797EF3"/>
<rect x="4" y="4" width="176" height="176" rx="88" stroke="#ECEEFE" stroke-width="8"/>
<mask id="mask0_6179_20536" style="mask-type:alpha" maskUnits="userSpaceOnUse" x="24" y="24" width="136" height="136">
<rect x="24" y="24" width="136" height="136" fill="#D9D9D9"/>
</mask>
<g mask="url(#mask0_6179_20536)">
<path d="M92.0111 92.0111C85.7777 92.0111 80.4416 89.7916 76.0027 85.3527C71.5639 80.9139 69.3444 75.5777 69.3444 69.3444C69.3444 63.1111 71.5639 57.775 76.0027 53.3361C80.4416 48.8972 85.7777 46.6777 92.0111 46.6777C98.2444 46.6777 103.581 48.8972 108.019 53.3361C112.458 57.775 114.678 63.1111 114.678 69.3444C114.678 75.5777 112.458 80.9139 108.019 85.3527C103.581 89.7916 98.2444 92.0111 92.0111 92.0111ZM46.6777 137.344V121.478C46.6777 118.267 47.5041 115.315 49.1569 112.624C50.8097 109.932 53.0055 107.878 55.7444 106.461C61.6 103.533 67.55 101.337 73.5944 99.8736C79.6389 98.4097 85.7777 97.6777 92.0111 97.6777C98.2444 97.6777 104.383 98.4097 110.428 99.8736C116.472 101.337 122.422 103.533 128.278 106.461C131.017 107.878 133.212 109.932 134.865 112.624C136.518 115.315 137.344 118.267 137.344 121.478V137.344H46.6777Z" fill="#ECEEFE"/>
</g>
</svg>
