<svg width="120" height="120" viewBox="0 0 120 120" fill="none" xmlns="http://www.w3.org/2000/svg">
<rect width="120" height="120" rx="60" fill="#797EF3"/>
<mask id="mask0_44442_5439" style="mask-type:alpha" maskUnits="userSpaceOnUse" x="16" y="16" width="88" height="88">
<rect x="16" y="16" width="88" height="88" fill="#D9D9D9"/>
</mask>
<g mask="url(#mask0_44442_5439)">
<path d="M60.0072 60.0072C55.9738 60.0072 52.5211 58.5711 49.6488 55.6988C46.7766 52.8266 45.3405 49.3738 45.3405 45.3405C45.3405 41.3072 46.7766 37.8544 49.6488 34.9822C52.5211 32.1099 55.9738 30.6738 60.0072 30.6738C64.0405 30.6738 67.4933 32.1099 70.3655 34.9822C73.2377 37.8544 74.6738 41.3072 74.6738 45.3405C74.6738 49.3738 73.2377 52.8266 70.3655 55.6988C67.4933 58.5711 64.0405 60.0072 60.0072 60.0072ZM30.6738 89.3405V79.0738C30.6738 76.9961 31.2086 75.0863 32.278 73.3447C33.3474 71.603 34.7683 70.2738 36.5405 69.3572C40.3294 67.4627 44.1794 66.0419 48.0905 65.0947C52.0016 64.1474 55.9738 63.6738 60.0072 63.6738C64.0405 63.6738 68.0127 64.1474 71.9238 65.0947C75.8349 66.0419 79.685 67.4627 83.4738 69.3572C85.2461 70.2738 86.6669 71.603 87.7363 73.3447C88.8058 75.0863 89.3405 76.9961 89.3405 79.0738V89.3405H30.6738Z" fill="#ECEEFE"/>
</g>
</svg>
