<svg width="45" height="46" viewBox="0 0 45 46" fill="none" xmlns="http://www.w3.org/2000/svg">
<g clip-path="url(#clip0_43203_4364)">
<path d="M41.6769 0.5H21.0115C19.1423 0.5 17.6538 1.98846 17.6538 3.82308V20.9231H41.6423C43.4769 20.9231 44.9654 19.4346 44.9654 17.6V3.82308C45 1.98846 43.5115 0.5 41.6769 0.5Z" fill="#92C83E"/>
<path d="M24.9577 12.3388C25.8563 12.3388 26.5847 11.6104 26.5847 10.7119C26.5847 9.81336 25.8563 9.08496 24.9577 9.08496C24.0592 9.08496 23.3308 9.81336 23.3308 10.7119C23.3308 11.6104 24.0592 12.3388 24.9577 12.3388Z" fill="white"/>
<path d="M31.3269 12.3388C32.2254 12.3388 32.9538 11.6104 32.9538 10.7119C32.9538 9.81336 32.2254 9.08496 31.3269 9.08496C30.4283 9.08496 29.7 9.81336 29.7 10.7119C29.7 11.6104 30.4283 12.3388 31.3269 12.3388Z" fill="white"/>
<path d="M37.6961 12.3388C38.5947 12.3388 39.3231 11.6104 39.3231 10.7119C39.3231 9.81336 38.5947 9.08496 37.6961 9.08496C36.7976 9.08496 36.0692 9.81336 36.0692 10.7119C36.0692 11.6104 36.7976 12.3388 37.6961 12.3388Z" fill="white"/>
<path d="M3.42696 24.8696C1.59234 24.8696 0.103882 26.358 0.103882 28.1927V42.1427C0.103882 43.9773 1.59234 45.4657 3.42696 45.4657H24.0923C25.927 45.4657 27.4154 43.9773 27.4154 42.1427V24.835H3.42696V24.8696Z" fill="#FBB03B"/>
<path d="M7.37302 36.8115C8.27154 36.8115 8.99994 36.0831 8.99994 35.1845C8.99994 34.286 8.27154 33.5576 7.37302 33.5576C6.47449 33.5576 5.74609 34.286 5.74609 35.1845C5.74609 36.0831 6.47449 36.8115 7.37302 36.8115Z" fill="white"/>
<path d="M13.7423 36.8115C14.6408 36.8115 15.3692 36.0831 15.3692 35.1845C15.3692 34.286 14.6408 33.5576 13.7423 33.5576C12.8438 33.5576 12.1154 34.286 12.1154 35.1845C12.1154 36.0831 12.8438 36.8115 13.7423 36.8115Z" fill="white"/>
<path d="M20.1115 36.8115C21.0101 36.8115 21.7385 36.0831 21.7385 35.1845C21.7385 34.286 21.0101 33.5576 20.1115 33.5576C19.213 33.5576 18.4846 34.286 18.4846 35.1845C18.4846 36.0831 19.213 36.8115 20.1115 36.8115Z" fill="white"/>
<path d="M13.7423 14.0691V20.9576H6.88846C3.08077 20.9576 0 17.8768 0 14.0691C0 10.2614 3.08077 7.18066 6.88846 7.18066C10.6961 7.18066 13.7423 10.2961 13.7423 14.0691Z" fill="#ED1E79"/>
<path d="M31.2577 31.7576V24.8691H38.1462C41.9538 24.8691 45.0346 27.9499 45.0346 31.7576C45.0346 35.5653 41.9538 38.6461 38.1462 38.6461C34.3385 38.6461 31.2577 35.5307 31.2577 31.7576Z" fill="#3FA9F5"/>
</g>
<defs>
<clipPath id="clip0_43203_4364">
<rect width="45" height="45" fill="white" transform="translate(0 0.5)"/>
</clipPath>
</defs>
</svg>
