<svg width="24" height="25" viewBox="0 0 24 25" fill="none" xmlns="http://www.w3.org/2000/svg">
<mask id="mask0_392_2866" style="mask-type:alpha" maskUnits="userSpaceOnUse" x="0" y="0" width="24" height="25">
<rect y="0.5" width="24" height="24" fill="#D9D9D9"/>
</mask>
<g mask="url(#mask0_392_2866)">
<path d="M19 14.5C18.7167 14.5 18.4793 14.404 18.288 14.212C18.096 14.0207 18 13.7833 18 13.5V11.5H16C15.7167 11.5 15.4793 11.404 15.288 11.212C15.096 11.0207 15 10.7833 15 10.5C15 10.2167 15.096 9.979 15.288 9.787C15.4793 9.59567 15.7167 9.5 16 9.5H18V7.5C18 7.21667 18.096 6.979 18.288 6.787C18.4793 6.59567 18.7167 6.5 19 6.5C19.2833 6.5 19.5207 6.59567 19.712 6.787C19.904 6.979 20 7.21667 20 7.5V9.5H22C22.2833 9.5 22.5207 9.59567 22.712 9.787C22.904 9.979 23 10.2167 23 10.5C23 10.7833 22.904 11.0207 22.712 11.212C22.5207 11.404 22.2833 11.5 22 11.5H20V13.5C20 13.7833 19.904 14.0207 19.712 14.212C19.5207 14.404 19.2833 14.5 19 14.5ZM9 12.5C7.9 12.5 6.95833 12.1083 6.175 11.325C5.39167 10.5417 5 9.6 5 8.5C5 7.4 5.39167 6.45833 6.175 5.675C6.95833 4.89167 7.9 4.5 9 4.5C10.1 4.5 11.0417 4.89167 11.825 5.675C12.6083 6.45833 13 7.4 13 8.5C13 9.6 12.6083 10.5417 11.825 11.325C11.0417 12.1083 10.1 12.5 9 12.5ZM2 20.5C1.71667 20.5 1.47933 20.404 1.288 20.212C1.096 20.0207 1 19.7833 1 19.5V17.7C1 17.1333 1.146 16.6123 1.438 16.137C1.72933 15.6623 2.11667 15.3 2.6 15.05C3.63333 14.5333 4.68333 14.1457 5.75 13.887C6.81667 13.629 7.9 13.5 9 13.5C10.1 13.5 11.1833 13.629 12.25 13.887C13.3167 14.1457 14.3667 14.5333 15.4 15.05C15.8833 15.3 16.2707 15.6623 16.562 16.137C16.854 16.6123 17 17.1333 17 17.7V19.5C17 19.7833 16.904 20.0207 16.712 20.212C16.5207 20.404 16.2833 20.5 16 20.5H2ZM3 18.5H15V17.7C15 17.5167 14.9543 17.35 14.863 17.2C14.771 17.05 14.65 16.9333 14.5 16.85C13.6 16.4 12.6917 16.0623 11.775 15.837C10.8583 15.6123 9.93333 15.5 9 15.5C8.06667 15.5 7.14167 15.6123 6.225 15.837C5.30833 16.0623 4.4 16.4 3.5 16.85C3.35 16.9333 3.22933 17.05 3.138 17.2C3.046 17.35 3 17.5167 3 17.7V18.5ZM9 10.5C9.55 10.5 10.021 10.304 10.413 9.912C10.8043 9.52067 11 9.05 11 8.5C11 7.95 10.8043 7.47933 10.413 7.088C10.021 6.696 9.55 6.5 9 6.5C8.45 6.5 7.97933 6.696 7.588 7.088C7.196 7.47933 7 7.95 7 8.5C7 9.05 7.196 9.52067 7.588 9.912C7.97933 10.304 8.45 10.5 9 10.5Z" fill="black"/>
</g>
</svg>
